<?xml version="1.0" standalone="no"?>
<!DOCTYPE svg PUBLIC "-//W3C//DTD SVG 20010904//EN"
 "http://www.w3.org/TR/2001/REC-SVG-20010904/DTD/svg10.dtd">
<svg version="1.0" xmlns="http://www.w3.org/2000/svg"
 width="360.000000pt" height="360.000000pt" viewBox="0 0 360.000000 360.000000"
 preserveAspectRatio="xMidYMid meet">
<metadata>
Created by potrace 1.11, written by Peter Selinger 2001-2013
</metadata>
<g transform="translate(0.000000,360.000000) scale(0.100000,-0.100000)"
fill="#000000" stroke="none">
<path d="M1870 3590 c0 -5 -71 -62 -157 -126 -87 -64 -162 -120 -167 -124 -5
-5 54 -83 130 -175 77 -92 143 -172 148 -180 7 -9 -22 -44 -105 -125 -111
-109 -116 -113 -194 -137 -286 -90 -520 -311 -630 -593 -14 -35 -49 -74 -161
-179 l-144 -133 0 -113 c0 -62 -3 -133 -6 -159 -4 -28 -3 -46 3 -46 6 0 64 50
129 110 l119 111 13 -82 c49 -317 258 -594 554 -734 78 -37 249 -85 303 -85
32 0 36 -5 95 -110 34 -61 64 -118 66 -128 3 -12 -38 -48 -161 -137 -90 -66
-163 -123 -162 -127 1 -4 60 -77 130 -163 l128 -155 105 0 105 0 -116 139
c-63 77 -115 142 -115 144 0 3 67 55 150 116 82 62 150 115 150 120 0 5 -36
72 -80 149 -44 78 -80 143 -80 146 0 3 21 8 48 12 64 9 163 40 246 76 253 110
455 342 537 618 21 72 28 81 146 210 l125 135 -6 74 c-3 41 -6 114 -6 163 0
48 -4 88 -8 88 -5 0 -55 -52 -112 -115 -58 -63 -108 -115 -112 -115 -4 0 -8 9
-8 20 0 11 -13 61 -30 112 -106 332 -400 592 -737 654 -49 8 -99 18 -113 21
-23 4 -18 11 68 96 51 50 91 95 88 101 -2 6 -63 82 -135 169 -72 87 -131 160
-131 162 0 3 64 52 143 111 78 59 146 111 152 116 6 5 2 21 -9 43 l-19 35 -89
0 c-52 0 -88 -4 -88 -10z m149 -1021 c231 -59 424 -220 525 -441 29 -62 70
-188 63 -194 -1 -1 -58 49 -127 112 -69 63 -129 114 -134 114 -5 0 -6 -24 -2
-52 3 -29 6 -100 6 -157 l0 -104 63 -61 c34 -34 90 -88 125 -120 l64 -59 -22
-68 c-77 -239 -286 -446 -524 -518 -151 -46 -341 -46 -486 0 -210 67 -396 231
-491 433 -31 66 -73 216 -67 242 2 10 41 -26 112 -103 60 -65 112 -119 117
-121 5 -2 9 43 9 101 0 57 3 131 6 163 l6 59 -110 119 -111 119 19 48 c40 105
93 184 189 279 77 77 113 105 186 142 147 75 262 100 419 91 50 -2 123 -13
165 -24z"/>
</g>
</svg>
